# xmcd CD database file
# Copyright (C) 1997 Ti Kan
# 
# Track frame offsets:
#     150
#     13425
#     26450
#     37447
#     51550
#     69475
#     81827
#     94820
#     106105
#     120240
#     130147
# 
# Disc length: 1893 seconds
# 
# Revision: 1
# Processed by: cddbd v1.4b41PL1 Copyright (c) Steve Scherf et al.
# Submitted via: DiscPlay 4.0.3
# 
DISCID=9507630b
DTITLE=Charlie Rich - Behind Closed Doors
DYEAR=1900
DGENRE=
TTITLE0=Behind Closed Doors
TTITLE1=If You Would'nt Be My Baby
TTITLE2=You Never Really Wanted Me
TTITLE3=A Sunday Kind Of Woman
TTITLE4=Peace On You
TTITLE5=The Most Beautiful Girl
TTITLE6=I Take It On Home
TTITLE7='Til I Can't Take It Anymore
TTITLE8=We Love Each Other
TTITLE9=I'm Not Going Hungry Anymore
TTITLE10=Nothing In The World (To Do With Me)
EXTD=
EXTT0=
EXTT1=
EXTT2=
EXTT3=
EXTT4=
EXTT5=
EXTT6=
EXTT7=
EXTT8=
EXTT9=
EXTT10=
PLAYORDER=
